<svg width="181" height="12" viewBox="0 0 181 12" fill="none" xmlns="http://www.w3.org/2000/svg">
<mask id="path-1-inside-1_101_9" fill="white">
<path d="M0 3C0 1.34315 1.34315 0 3 0H181V12H3C1.34314 12 0 10.6569 0 9V3Z"/>
</mask>
<path d="M0 3C0 1.34315 1.34315 0 3 0H181V12H3C1.34314 12 0 10.6569 0 9V3Z" fill="#D9D9D9"/>
<path d="M-1 3C-1 0.790861 0.790861 -1 3 -1H181V1H3C1.89543 1 1 1.89543 1 3H-1ZM181 13H3C0.790861 13 -1 11.2091 -1 9H1C1 10.1046 1.89543 11 3 11H181V13ZM3 13C0.790861 13 -1 11.2091 -1 9V3C-1 0.790861 0.790861 -1 3 -1V1C1.89543 1 1 1.89543 1 3V9C1 10.1046 1.89543 11 3 11V13ZM181 0V12V0Z" fill="black" mask="url(#path-1-inside-1_101_9)"/>
</svg>
