<svg version="1.1" id="Layer_1" xmlns="http://www.w3.org/2000/svg" xmlns:xlink="http://www.w3.org/1999/xlink" x="0px" y="0px"
	 width="100%" viewBox="0 0 635 349" enable-background="new 0 0 635 349" xml:space="preserve">
<path fill="#FFFFFF" opacity="1.000000" stroke="none" 
	d="
M390.999817,252.825073 
	C365.544830,252.825882 340.589844,252.825882 315.378815,252.825882 
	C315.378815,239.130051 315.378815,225.526489 315.378815,211.145416 
	C317.298920,211.145416 319.216278,211.149368 321.133606,211.144836 
	C369.797150,211.029678 418.460693,210.896652 467.124298,210.813705 
	C475.686188,210.799118 483.679962,208.337097 489.261627,202.103867 
	C501.470978,188.469223 499.563843,170.526489 478.474945,163.482285 
	C462.422058,158.120224 445.529846,155.283737 429.443634,150.005310 
	C406.796753,142.574097 383.191711,137.755661 362.451111,124.880447 
	C342.684052,112.609558 332.705933,95.443893 332.100891,72.268944 
	C331.777435,59.880653 334.365967,48.369003 340.964478,38.059925 
	C349.503540,24.719021 362.636932,18.349245 378.000519,17.945423 
	C406.135681,17.205906 434.295685,17.352285 462.445801,17.257917 
	C489.604919,17.166870 516.764587,17.238205 544.338501,17.238205 
	C544.338501,38.918270 544.338501,60.437668 544.338501,82.226212 
	C529.918152,82.226212 515.658203,82.226212 500.885406,82.226212 
	C500.885406,73.789551 500.885406,65.552261 500.885406,56.796436 
	C498.766235,56.796436 497.153534,56.796288 495.540863,56.796455 
	C469.708435,56.799110 443.875122,56.682125 418.044098,56.873863 
	C409.767609,56.935299 401.470551,57.552540 393.232025,58.395561 
	C385.925995,59.143162 379.534637,61.963104 377.051880,69.674126 
	C375.116577,75.684738 378.887909,86.237160 385.378052,89.714111 
	C393.960571,94.312004 403.028351,98.360054 412.329315,101.195114 
	C441.709534,110.150635 471.336182,118.293945 500.785217,127.028961 
	C515.660156,131.441086 527.443787,140.416016 534.577209,154.250427 
	C540.670410,166.067520 541.308105,179.179276 540.553223,192.269455 
	C540.276550,197.066238 539.790649,201.887833 538.906189,206.605499 
	C536.651184,218.633942 530.158997,227.863403 521.210449,236.317566 
	C508.225555,248.585129 492.730743,252.072845 475.966309,252.306030 
	C447.813873,252.697617 419.655609,252.673477 390.999817,252.825073 
z"/>
<path fill="#FFFFFF" opacity="1.000000" stroke="none" 
	d="
M183.243896,340.854736 
	C183.244263,327.221130 183.244263,314.073853 183.244263,300.511353 
	C184.840134,300.412231 186.269379,300.247772 187.698761,300.246582 
	C199.859192,300.236542 212.021164,300.153687 224.179062,300.335052 
	C227.434052,300.383606 230.759888,300.961365 233.908844,301.823425 
	C242.460129,304.164459 254.512009,296.535828 256.925323,286.516602 
	C258.040466,281.886841 258.415466,276.977844 258.415649,272.195465 
	C258.418396,189.572937 258.310272,106.950401 258.226776,24.327869 
	C258.224762,22.356623 258.226532,20.385370 258.226532,18.071705 
	C273.450714,18.071705 288.333771,18.071705 303.765045,18.071705 
	C303.765045,20.096992 303.765259,22.048672 303.764984,24.000353 
	C303.752441,108.956932 303.796661,193.913589 303.680908,278.870026 
	C303.656860,296.532166 299.797485,313.097992 287.782501,326.906128 
	C276.981720,339.318878 262.817230,345.337494 246.961212,346.014191 
	C226.020477,346.907867 205.012848,346.234100 183.243530,346.234100 
	C183.243530,344.469696 183.243530,342.905396 183.243896,340.854736 
z"/>
<path fill="#FFFFFF" opacity="1.000000" stroke="none" 
	d="
M173.164856,168.940353 
	C173.584579,157.885559 174.134674,147.308228 174.244995,136.726318 
	C174.517807,110.556976 171.078018,84.711243 167.141861,58.914055 
	C166.722946,56.168541 166.847260,53.340141 166.701141,50.147873 
	C180.357803,50.147873 193.591492,50.147873 207.921951,50.147873 
	C217.054703,109.562721 217.764771,169.089111 207.841721,228.917526 
	C193.895172,228.917526 180.627945,228.917526 166.643906,228.917526 
	C168.794464,209.082047 170.944778,189.248901 173.164856,168.940353 
z"/>
<path fill="#FFFFFF" opacity="1.000000" stroke="none" 
	d="
M140.998444,211.738922 
	C133.208099,211.739639 125.917305,211.739639 117.960121,211.739639 
	C126.778191,164.324982 127.641464,117.499557 117.567192,69.748840 
	C130.576218,69.748840 143.024551,69.665710 155.467377,69.888664 
	C156.602539,69.909012 158.536407,71.783920 158.690811,72.979515 
	C160.368118,85.968468 162.517365,98.962883 163.052582,112.016701 
	C163.780975,129.781860 163.765518,147.622238 163.042328,165.388565 
	C162.422791,180.608414 160.358734,195.769470 158.860168,211.738220 
	C153.016266,211.738220 147.257126,211.738220 140.998444,211.738922 
z"/>
<path fill="#FFFFFF" opacity="1.000000" stroke="none" 
	d="
M65.993309,122.727966 
	C81.084938,122.727028 95.678017,122.727028 110.882118,122.727028 
	C110.255447,116.364746 109.708801,110.814934 109.162155,105.265129 
	C109.570206,105.221184 109.978264,105.177238 110.386314,105.133301 
	C114.296906,116.933220 116.349342,129.100616 115.697418,141.598694 
	C115.052116,153.969925 113.836472,166.311417 112.870995,178.665955 
	C112.237801,178.637955 111.604614,178.609955 110.971428,178.581955 
	C110.971428,171.132980 110.971428,163.684006 110.971428,155.601746 
	C79.608894,155.601746 48.747040,155.601746 17.569054,155.601746 
	C17.569054,144.407562 17.569054,133.854996 17.569054,122.728912 
	C33.626141,122.728912 49.560448,122.728912 65.993309,122.727966 
z"/>
<path fill="#FFFFFF" opacity="1.000000" stroke="none" 
	d="
M586.000366,122.505219 
	C597.448730,122.505302 608.397095,122.505302 619.756348,122.505302 
	C619.756348,133.692932 619.756348,144.424683 619.756348,155.470093 
	C618.504822,155.565033 617.222290,155.746124 615.939697,155.747116 
	C595.129700,155.763245 574.319458,155.704163 553.510010,155.812943 
	C550.476746,155.828796 548.801697,155.120819 547.531921,152.050201 
	C543.065613,141.249573 537.118286,131.358810 528.048157,122.505142 
	C547.198914,122.505142 566.349609,122.505142 586.000366,122.505219 
z"/>
</svg>