<svg width="102" height="47" viewBox="0 0 102 47" fill="none" xmlns="http://www.w3.org/2000/svg">
<path d="M52.3386 34.0481C48.9312 34.0482 45.5908 34.0482 42.2161 34.0482C42.2161 32.2038 42.2161 30.3718 42.2161 28.4351C42.4731 28.4351 42.7297 28.4356 42.9864 28.435C49.5004 28.4195 56.0144 28.4016 62.5285 28.3904C63.6745 28.3884 64.7446 28.0569 65.4917 27.2174C67.126 25.3812 66.8708 22.9649 64.0478 22.0162C61.899 21.2941 59.6379 20.9121 57.4846 20.2013C54.4531 19.2005 51.2934 18.5516 48.5171 16.8177C45.8711 15.1652 44.5354 12.8535 44.4545 9.7325C44.4112 8.06416 44.7577 6.51388 45.6409 5.12555C46.7839 3.32893 48.542 2.47111 50.5985 2.41672C54.3646 2.31713 58.1341 2.33684 61.9022 2.32414C65.5377 2.31187 69.1732 2.32148 72.8642 2.32148C72.8642 5.24115 72.8642 8.13917 72.8642 11.0734C70.9339 11.0734 69.0251 11.0734 67.0477 11.0734C67.0477 9.93728 67.0477 8.82796 67.0477 7.64881C66.764 7.64881 66.5481 7.64879 66.3322 7.64881C62.8744 7.64917 59.4164 7.63341 55.9587 7.65924C54.8508 7.66751 53.7402 7.75063 52.6374 7.86416C51.6594 7.96484 50.8039 8.34461 50.4715 9.38305C50.2125 10.1925 50.7173 11.6136 51.586 12.0818C52.7349 12.701 53.9487 13.2462 55.1937 13.628C59.1265 14.834 63.0922 15.9307 67.0342 17.1071C69.0254 17.7012 70.6027 18.9099 71.5576 20.773C72.3732 22.3644 72.4586 24.1302 72.3575 25.893C72.3205 26.539 72.2554 27.1883 72.1371 27.8237C71.8352 29.4435 70.9662 30.6865 69.7683 31.825C68.0302 33.4771 65.9561 33.9468 63.712 33.9782C59.9436 34.0309 56.1744 34.0277 52.3386 34.0481Z" fill="white"/>
<path d="M24.5287 45.9031C24.5288 44.067 24.5288 42.2965 24.5288 40.47C24.7424 40.4567 24.9337 40.4345 25.125 40.4344C26.7528 40.433 28.3808 40.4218 30.0082 40.4463C30.4439 40.4528 30.8891 40.5306 31.3106 40.6467C32.4553 40.962 34.0685 39.9346 34.3916 38.5853C34.5408 37.9618 34.591 37.3007 34.5911 36.6567C34.5914 25.5299 34.577 14.4031 34.5658 3.27625C34.5655 3.01078 34.5658 2.74531 34.5658 2.43373C36.6036 2.43373 38.5959 2.43373 40.6615 2.43373C40.6615 2.70648 40.6615 2.96931 40.6615 3.23214C40.6598 14.6733 40.6657 26.1144 40.6502 37.5556C40.647 39.9341 40.1304 42.1651 38.5221 44.0246C37.0763 45.6962 35.1803 46.5068 33.0578 46.5979C30.2547 46.7183 27.4427 46.6275 24.5287 46.6275C24.5287 46.3899 24.5287 46.1792 24.5287 45.9031Z" fill="white"/>
<path d="M23.1796 22.7513C23.2357 21.2625 23.3094 19.8381 23.3241 18.413C23.3607 14.8888 22.9002 11.4081 22.3733 7.93398C22.3173 7.56424 22.3339 7.18334 22.3143 6.75343C24.1424 6.75343 25.9138 6.75343 27.8321 6.75343C29.0546 14.7549 29.1496 22.7713 27.8213 30.8284C25.9545 30.8284 24.1786 30.8284 22.3067 30.8284C22.5945 28.1572 22.8824 25.4862 23.1796 22.7513Z" fill="white"/>
<path d="M18.8738 28.515C17.831 28.5151 16.8551 28.5151 15.7899 28.5151C16.9703 22.1297 17.0859 15.8237 15.7373 9.39311C17.4787 9.39311 19.145 9.38192 20.8106 9.41194C20.9625 9.41468 21.2214 9.66718 21.2421 9.82819C21.4666 11.5774 21.7543 13.3274 21.8259 15.0853C21.9234 17.4778 21.9214 19.8804 21.8246 22.273C21.7416 24.3226 21.4653 26.3644 21.2647 28.5149C20.4825 28.5149 19.7116 28.5149 18.8738 28.515Z" fill="white"/>
<path d="M8.83375 16.5278C10.8539 16.5277 12.8073 16.5277 14.8425 16.5277C14.7586 15.6709 14.6854 14.9235 14.6123 14.1761C14.6669 14.1702 14.7215 14.1643 14.7761 14.1584C15.2996 15.7475 15.5743 17.386 15.4871 19.0692C15.4007 20.7352 15.238 22.3972 15.1087 24.061C15.024 24.0573 14.9392 24.0535 14.8544 24.0497C14.8544 23.0466 14.8544 22.0434 14.8544 20.955C10.6563 20.955 6.52519 20.955 2.35176 20.955C2.35176 19.4474 2.35176 18.0263 2.35176 16.528C4.50113 16.528 6.63407 16.528 8.83375 16.5278Z" fill="white"/>
<path d="M78.441 16.4978C79.9735 16.4979 81.439 16.4979 82.9595 16.4979C82.9595 18.0045 82.9595 19.4497 82.9595 20.9372C82.792 20.95 82.6203 20.9744 82.4486 20.9745C79.663 20.9767 76.8774 20.9688 74.0919 20.9834C73.6859 20.9855 73.4617 20.8902 73.2917 20.4767C72.6938 19.0222 71.8977 17.6902 70.6836 16.4978C73.2471 16.4978 75.8106 16.4978 78.441 16.4978Z" fill="white"/>
<path d="M79.3848 9L79.1748 7.89H77.5948L77.3848 9H76.0248L77.3748 2H79.4448L80.7248 9H79.3848ZM78.3648 3.3L77.9748 5.63L77.7548 6.82H79.0048L78.7748 5.63L78.3848 3.3H78.3648ZM81.3071 9V2H82.6771V7.84H84.7571V9H81.3071ZM86.788 3.2V5.7H87.678C88.0447 5.4 88.228 4.96 88.228 4.38C88.228 4.13333 88.178 3.9 88.078 3.68C87.9847 3.46 87.8713 3.3 87.738 3.2H86.788ZM85.438 9V2H88.148C88.6013 2.2 88.958 2.50667 89.218 2.92C89.4847 3.33333 89.618 3.81667 89.618 4.37C89.618 4.91667 89.4813 5.42333 89.208 5.89C88.9347 6.35667 88.5313 6.68667 87.998 6.88H86.788V9H85.438ZM91.7201 9H90.3501V2H91.7201V4.82H93.3201V2H94.6901V9H93.3201V6.1H91.7201V9ZM98.6329 9L98.4229 7.89H96.8429L96.6329 9H95.2729L96.6229 2H98.6929L99.9729 9H98.6329ZM97.6129 3.3L97.2229 5.63L97.0029 6.82H98.2529L98.0229 5.63L97.6329 3.3H97.6129Z" fill="white"/>
</svg>
